<svg width="91" height="53" viewBox="0 0 91 53" fill="none" xmlns="http://www.w3.org/2000/svg">
<path d="M82.2084 15.4909C82.4353 16.1913 82.4231 17.3385 81.4309 19.1168C80.4354 20.9009 78.623 22.9805 75.9432 25.1816C70.6019 29.5687 62.4168 33.9467 52.6417 37.1123C42.8667 40.278 33.6691 41.5296 26.77 41.1065C23.3086 40.8943 20.6212 40.272 18.7688 39.4102C16.9225 38.5511 16.2401 37.6288 16.0133 36.9285C15.7865 36.2281 15.7986 35.0809 16.7909 33.3026C17.7864 31.5185 19.5987 29.4389 22.2785 27.2378C27.6199 22.8507 35.805 18.4727 45.58 15.307C55.355 12.1414 64.5527 10.8898 71.4518 11.3129C74.9132 11.5251 77.6005 12.1474 79.4529 13.0092C81.2992 13.8682 81.9816 14.7906 82.2084 15.4909Z" stroke="#FF7113" stroke-opacity="0.6" stroke-width="7.28613"/>
<path fill-rule="evenodd" clip-rule="evenodd" d="M49.1676 48.6227C61.9304 48.6227 72.2767 38.2764 72.2767 25.5136C72.2767 24.8151 72.2457 24.1239 72.1851 23.4412C67.052 27.4481 59.6264 31.0025 51.3583 33.6802C47.3425 34.9807 42.4807 36.1822 37.9292 36.8895C34.9807 37.3478 32.0045 37.6255 29.4231 37.528C33.4801 44.1809 40.8051 48.6227 49.1676 48.6227ZM27.1415 32.526C26.438 30.3143 26.0584 27.9583 26.0584 25.5136C26.0584 12.7507 36.4047 2.40442 49.1676 2.40442C59.3699 2.40442 68.028 9.01573 71.0914 18.1878C66.7593 22.2367 59.1376 26.2052 49.9057 29.195C46.1098 30.4243 41.4917 31.5647 37.2052 32.2309C32.9044 32.8993 29.2808 33.0324 27.1415 32.526Z" fill="#FF7113"/>
</svg>
