<svg width="12" height="14" viewBox="0 0 12 14" fill="none" xmlns="http://www.w3.org/2000/svg">
<path d="M5.99999 0.333374C4.15899 0.333374 2.66666 1.82571 2.66666 3.66671C2.66666 5.50771 4.15899 7.00004 5.99999 7.00004C7.84099 7.00004 9.33332 5.50771 9.33332 3.66671C9.33332 1.82571 7.84099 0.333374 5.99999 0.333374ZM2.08332 8.33337C1.70766 8.33337 1.34737 8.48258 1.08171 8.74819C0.816039 9.01379 0.666745 9.37404 0.666656 9.74971V10C0.666656 11.2517 1.31399 12.189 2.30666 12.7934C3.28332 13.3877 4.59532 13.6667 5.99999 13.6667C7.40466 13.6667 8.71666 13.3877 9.69332 12.7934C10.686 12.189 11.3333 11.2517 11.3333 10V9.74971C11.3333 9.56368 11.2967 9.37948 11.2255 9.20762C11.1543 9.03576 11.0499 8.87961 10.9184 8.74809C10.7868 8.61657 10.6306 8.51225 10.4588 8.44109C10.2869 8.36993 10.1027 8.33333 9.91666 8.33337H2.08332Z" fill="#FF7113"/>
</svg>
