<svg width="137" height="81" viewBox="0 0 137 81" fill="none" xmlns="http://www.w3.org/2000/svg">
<path d="M19.8439 32.5904C18.7491 30.5587 16.3166 28.3594 12.68 27.1465C10.891 26.5442 9.20223 26.3265 7.67224 26.5018L7.32129 25.4483C9.93004 23.8269 12.0792 20.9931 12.9994 17.8163C13.4679 16.2112 13.6187 14.7398 13.4266 13.3268L14.4801 12.9759C15.7505 15.3672 18.6428 17.5247 21.9282 18.5202C23.5417 19.0138 25.1051 19.1896 26.5849 19.0311L26.9358 20.0845C24.3438 21.589 21.9354 25.15 21.174 28.2182C20.7975 29.7648 20.7137 31.1024 20.8974 32.2395L19.8439 32.5904Z" fill="white"/>
<path d="M124.085 23.889C124.435 24.969 124.416 26.7382 122.886 29.4806C121.351 32.2319 118.556 35.4388 114.424 38.8332C106.187 45.5988 93.5641 52.3501 78.4898 57.232C63.4155 62.1139 49.2315 64.0439 38.5922 63.3915C33.2543 63.0642 29.1101 62.1046 26.2534 60.7755C23.4062 59.4508 22.3538 58.0285 22.0041 56.9484C21.6543 55.8684 21.673 54.0992 23.2032 51.3569C24.7383 48.6055 27.5332 45.3986 31.6659 42.0042C39.9029 35.2387 52.5254 28.4873 67.5997 23.6054C82.674 18.7235 96.858 16.7935 107.497 17.4459C112.835 17.7732 116.979 18.7328 119.836 20.0619C122.683 21.3866 123.736 22.8089 124.085 23.889Z" stroke="white" stroke-opacity="0.7" stroke-width="11.2361"/>
<path fill-rule="evenodd" clip-rule="evenodd" d="M73.1322 74.9825C92.8141 74.9825 108.769 59.0271 108.769 39.3452C108.769 38.2681 108.722 37.2022 108.628 36.1494C100.712 42.3286 89.261 47.8099 76.5106 51.9392C70.3177 53.9448 62.8203 55.7976 55.8012 56.8884C51.2543 57.595 46.6646 58.0234 42.6838 57.8729C48.9402 68.1327 60.2363 74.9825 73.1322 74.9825ZM39.1652 50.1592C38.0804 46.7486 37.4949 43.1152 37.4949 39.3452C37.4949 19.6633 53.4503 3.70792 73.1322 3.70792C88.8655 3.70792 102.217 13.9034 106.942 28.0479C100.261 34.2918 88.5072 40.4118 74.2705 45.0224C68.4168 46.9182 61.295 48.6769 54.6847 49.7042C48.0523 50.7349 42.4643 50.9402 39.1652 50.1592Z" fill="white"/>
</svg>
