<svg width="393" height="852" viewBox="0 0 393 852" fill="none" xmlns="http://www.w3.org/2000/svg">
<rect width="393" height="852" fill="url(#paint0_linear_41_503)"/>
<path d="M121.834 325.636L132.066 350.544H132.498L142.705 325.636H152.125V362.401H144.711V338.306H144.406L134.809 362.224H129.705L120.133 338.255H119.828V362.401H112.439V325.636H121.834ZM158.346 325.636H183.025V331.933H165.963V340.87H181.73V347.142H165.963V356.105H183.076V362.401H158.346V325.636ZM188.967 325.636H213.646V331.933H196.584V340.87H212.352V347.142H196.584V356.105H213.697V362.401H188.967V325.636ZM218.115 325.636H248.229V331.933H236.955V362.401H229.414V331.933H218.115V325.636ZM246.426 362.401L259.121 325.636H268.922L281.643 362.401H273.441L264.174 333.939H263.869L254.576 362.401H246.426ZM273.797 347.954V353.921H254.17V347.954H273.797Z" fill="white"/>
<path d="M145.844 252.59C144.749 250.559 142.317 248.359 138.68 247.146C136.891 246.544 135.202 246.327 133.672 246.502L133.321 245.448C135.93 243.827 138.079 240.993 138.999 237.816C139.468 236.211 139.619 234.74 139.427 233.327L140.48 232.976C141.75 235.367 144.643 237.525 147.928 238.52C149.542 239.014 151.105 239.19 152.585 239.031L152.936 240.085C150.344 241.589 147.935 245.15 147.174 248.218C146.798 249.765 146.714 251.102 146.897 252.24L145.844 252.59Z" fill="white"/>
<path d="M250.085 243.889C250.435 244.969 250.416 246.738 248.886 249.481C247.351 252.232 244.556 255.439 240.424 258.833C232.187 265.599 219.564 272.35 204.49 277.232C189.415 282.114 175.232 284.044 164.592 283.392C159.254 283.064 155.11 282.105 152.253 280.776C149.406 279.451 148.354 278.028 148.004 276.948C147.654 275.868 147.673 274.099 149.203 271.357C150.738 268.605 153.533 265.399 157.666 262.004C165.903 255.239 178.525 248.487 193.6 243.605C208.674 238.724 222.858 236.794 233.497 237.446C238.835 237.773 242.979 238.733 245.836 240.062C248.683 241.387 249.736 242.809 250.085 243.889Z" stroke="white" stroke-opacity="0.7" stroke-width="11.2361"/>
<path fill-rule="evenodd" clip-rule="evenodd" d="M199.132 294.982C218.814 294.982 234.769 279.027 234.769 259.345C234.769 258.268 234.722 257.202 234.628 256.149C226.712 262.329 215.261 267.81 202.511 271.939C196.318 273.945 188.82 275.798 181.801 276.888C177.254 277.595 172.665 278.023 168.684 277.873C174.94 288.133 186.236 294.982 199.132 294.982ZM165.165 270.159C164.08 266.749 163.495 263.115 163.495 259.345C163.495 239.663 179.45 223.708 199.132 223.708C214.865 223.708 228.217 233.903 232.942 248.048C226.261 254.292 214.507 260.412 200.271 265.022C194.417 266.918 187.295 268.677 180.685 269.704C174.052 270.735 168.464 270.94 165.165 270.159Z" fill="white"/>
<defs>
<linearGradient id="paint0_linear_41_503" x1="139.451" y1="615.632" x2="117.884" y2="-477.02" gradientUnits="userSpaceOnUse">
<stop stop-color="#FF7113"/>
<stop offset="1" stop-color="#FFB800"/>
</linearGradient>
</defs>
</svg>
