<svg width="24" height="24" viewBox="0 0 24 24" fill="none" xmlns="http://www.w3.org/2000/svg">
<path d="M4.76995 17H19.2292C19.6742 17 20.1127 16.8969 20.5075 16.6993C20.9023 16.5017 21.2419 16.2155 21.4975 15.8649C21.7531 15.5142 21.9171 15.1095 21.9758 14.685C22.0345 14.2604 21.9861 13.8285 21.8346 13.4258L19.2006 6.41689C18.7508 4.85929 17.7832 3.48639 16.4459 2.50815C15.1086 1.52991 13.4752 1.00019 11.7955 1C10.0469 0.999974 8.35064 1.57386 6.98669 2.62689C5.62274 3.67993 4.67269 5.14916 4.29339 6.792L2.12302 13.5476C1.99523 13.9464 1.96651 14.3685 2.03915 14.78C2.11179 15.1915 2.28377 15.5808 2.54126 15.9167C2.79874 16.2525 3.13454 16.5255 3.52163 16.7137C3.90872 16.9018 4.33629 16.9999 4.76995 17Z" fill="#242424"/>
<path d="M8 19C8.21078 20.1289 8.77394 21.1438 9.59405 21.8728C10.4142 22.6018 11.4408 23 12.5 23C13.5592 23 14.5858 22.6018 15.406 21.8728C16.2261 21.1438 16.7892 20.1289 17 19H8Z" fill="#242424"/>
</svg>
