<svg width="22" height="22" viewBox="0 0 22 22" fill="none" xmlns="http://www.w3.org/2000/svg">
<path fill-rule="evenodd" clip-rule="evenodd" d="M12 10.761C12 10.794 11.984 10.823 11.981 10.855C11.9754 10.9227 11.9616 10.9895 11.94 11.054C11.9038 11.1736 11.8447 11.285 11.766 11.382C11.722 11.435 11.676 11.482 11.622 11.526C11.597 11.546 11.582 11.575 11.555 11.593L6.829 14.743C6.60832 14.8846 6.34086 14.9338 6.08423 14.8801C5.8276 14.8264 5.60233 14.6741 5.45692 14.4559C5.31152 14.2377 5.25761 13.9712 5.30682 13.7136C5.35602 13.4561 5.5044 13.2282 5.72 13.079L10 10.226V5.556C10 5.29078 10.1054 5.03643 10.2929 4.84889C10.4804 4.66136 10.7348 4.556 11 4.556C11.2652 4.556 11.5196 4.66136 11.7071 4.84889C11.8946 5.03643 12 5.29078 12 5.556V10.761V10.761ZM11 0.5C5.201 0.5 0.5 5.201 0.5 11C0.5 16.799 5.201 21.5 11 21.5C16.799 21.5 21.5 16.799 21.5 11C21.5 5.201 16.799 0.5 11 0.5Z" fill="#FF7113"/>
</svg>
