<svg width="24" height="24" viewBox="0 0 24 24" fill="none" xmlns="http://www.w3.org/2000/svg">
<path fill-rule="evenodd" clip-rule="evenodd" d="M17.207 10.415L11.623 15.999C11.4355 16.1865 11.1812 16.2918 10.916 16.2918C10.6509 16.2918 10.3966 16.1865 10.209 15.999L6.79305 12.582C6.7002 12.4892 6.62656 12.379 6.57631 12.2577C6.52606 12.1364 6.5002 12.0064 6.5002 11.875C6.5002 11.7437 6.52606 11.6137 6.57631 11.4924C6.62656 11.3711 6.7002 11.2609 6.79305 11.168C6.88589 11.0752 6.99612 11.0016 7.11742 10.9513C7.23873 10.9011 7.36875 10.8752 7.50005 10.8752C7.63135 10.8752 7.76137 10.9011 7.88267 10.9513C8.00398 11.0016 8.1142 11.0752 8.20705 11.168L10.916 13.877L15.793 9.00105C15.8859 8.9082 15.9961 8.83456 16.1174 8.78431C16.2387 8.73406 16.3687 8.7082 16.5 8.7082C16.6314 8.7082 16.7614 8.73406 16.8827 8.78431C17.004 8.83456 17.1142 8.9082 17.207 9.00105C17.2999 9.09389 17.3735 9.20412 17.4238 9.32542C17.474 9.44673 17.4999 9.57675 17.4999 9.70805C17.4999 9.83935 17.474 9.96937 17.4238 10.0907C17.3735 10.212 17.2999 10.3222 17.207 10.415ZM19.7001 2.80005H18.07V1.80005C18.07 1.53483 17.9647 1.28048 17.7772 1.09294C17.5896 0.905406 17.3353 0.800049 17.07 0.800049C16.8048 0.800049 16.5505 0.905406 16.3629 1.09294C16.1754 1.28048 16.07 1.53483 16.07 1.80005V2.80005H7.93005V1.80005C7.93005 1.53483 7.82469 1.28048 7.63716 1.09294C7.44962 0.905406 7.19527 0.800049 6.93005 0.800049C6.66483 0.800049 6.41048 0.905406 6.22294 1.09294C6.03541 1.28048 5.93005 1.53483 5.93005 1.80005V2.80005H4.30005C3.76962 2.80005 3.26091 3.01076 2.88584 3.38584C2.51076 3.76091 2.30005 4.26962 2.30005 4.80005V20.2001C2.30005 20.7305 2.51076 21.2392 2.88584 21.6143C3.26091 21.9893 3.76962 22.2001 4.30005 22.2001H19.7001C20.2305 22.2001 20.7392 21.9893 21.1143 21.6143C21.4893 21.2392 21.7001 20.7305 21.7001 20.2001V4.80005C21.7001 4.26962 21.4893 3.76091 21.1143 3.38584C20.7392 3.01076 20.2305 2.80005 19.7001 2.80005Z" fill="#242424"/>
</svg>
