<svg width="393" height="852" viewBox="0 0 393 852" fill="none" xmlns="http://www.w3.org/2000/svg">
<rect width="393" height="852" fill="url(#paint0_linear_18_5)"/>
<path d="M151.203 428.234H175.883V434.531H158.82V443.469H174.588V449.74H158.82V458.703H175.934V465H151.203V428.234ZM180.352 428.234H210.465V434.531H199.191V465H191.65V434.531H180.352V428.234ZM208.662 465L221.357 428.234H231.158L243.879 465H235.678L226.41 436.537H226.105L216.812 465H208.662ZM236.033 450.553V456.52H216.406V450.553H236.033Z" fill="white"/>
<path d="M145.844 355.189C144.749 353.157 142.317 350.958 138.68 349.745C136.891 349.143 135.202 348.925 133.672 349.1L133.321 348.047C135.93 346.425 138.079 343.592 138.999 340.415C139.468 338.81 139.619 337.338 139.427 335.925L140.48 335.574C141.75 337.966 144.643 340.123 147.928 341.119C149.542 341.612 151.105 341.788 152.585 341.63L152.936 342.683C150.344 344.187 147.935 347.749 147.174 350.817C146.798 352.363 146.714 353.701 146.897 354.838L145.844 355.189Z" fill="white"/>
<path d="M250.085 346.488C250.435 347.568 250.416 349.337 248.886 352.079C247.351 354.83 244.556 358.037 240.424 361.432C232.187 368.197 219.564 374.949 204.49 379.831C189.415 384.712 175.232 386.642 164.592 385.99C159.254 385.663 155.11 384.703 152.253 383.374C149.406 382.049 148.354 380.627 148.004 379.547C147.654 378.467 147.673 376.698 149.203 373.955C150.738 371.204 153.533 367.997 157.666 364.603C165.903 357.837 178.525 351.086 193.6 346.204C208.674 341.322 222.858 339.392 233.497 340.044C238.835 340.372 242.979 341.331 245.836 342.66C248.683 343.985 249.736 345.407 250.085 346.488Z" stroke="white" stroke-opacity="0.7" stroke-width="11.2361"/>
<path fill-rule="evenodd" clip-rule="evenodd" d="M199.132 397.581C218.814 397.581 234.769 381.626 234.769 361.944C234.769 360.867 234.722 359.801 234.628 358.748C226.712 364.927 215.261 370.408 202.511 374.538C196.318 376.543 188.82 378.396 181.801 379.487C177.254 380.194 172.665 380.622 168.684 380.471C174.94 390.731 186.236 397.581 199.132 397.581ZM165.165 372.758C164.08 369.347 163.495 365.714 163.495 361.944C163.495 342.262 179.45 326.306 199.132 326.306C214.865 326.306 228.217 336.502 232.942 350.646C226.261 356.89 214.507 363.01 200.271 367.621C194.417 369.517 187.295 371.275 180.685 372.303C174.052 373.333 168.464 373.539 165.165 372.758Z" fill="white"/>
<defs>
<linearGradient id="paint0_linear_18_5" x1="139.451" y1="615.632" x2="452.773" y2="-209.234" gradientUnits="userSpaceOnUse">
<stop stop-color="#FF7113"/>
<stop offset="1" stop-color="#FFB800"/>
</linearGradient>
</defs>
</svg>
